<?xml version="1.0" encoding="utf-8" standalone="no"?>
<!DOCTYPE svg PUBLIC "-//W3C//DTD SVG 1.1//EN"
  "http://www.w3.org/Graphics/SVG/1.1/DTD/svg11.dtd">
<svg xmlns:xlink="http://www.w3.org/1999/xlink" width="460.8pt" height="345.6pt" viewBox="0 0 460.8 345.6" xmlns="http://www.w3.org/2000/svg" version="1.1">
 <metadata>
  <rdf:RDF xmlns:dc="http://purl.org/dc/elements/1.1/" xmlns:cc="http://creativecommons.org/ns#" xmlns:rdf="http://www.w3.org/1999/02/22-rdf-syntax-ns#">
   <cc:Work>
    <dc:type rdf:resource="http://purl.org/dc/dcmitype/StillImage"/>
    <dc:date>2025-06-25T13:15:23.102086</dc:date>
    <dc:format>image/svg+xml</dc:format>
    <dc:creator>
     <cc:Agent>
      <dc:title>Matplotlib v3.9.2, https://matplotlib.org/</dc:title>
     </cc:Agent>
    </dc:creator>
   </cc:Work>
  </rdf:RDF>
 </metadata>
 <defs>
  <style type="text/css">*{stroke-linejoin: round; stroke-linecap: butt}</style>
 </defs>
 <g id="figure_1">
  <g id="patch_1">
   <path d="M 0 345.6 
L 460.8 345.6 
L 460.8 0 
L 0 0 
z
" style="fill: #ffffff"/>
  </g>
  <g id="axes_1">
   <g id="patch_2">
    <path d="M 30.58 139.12 
L 225 139.12 
L 225 10.8 
L 30.58 10.8 
z
" style="fill: #ffffff"/>
   </g>
   <g id="matplotlib.axis_1">
    <g id="xtick_1">
     <g id="line2d_1">
      <defs>
       <path id="m1162149176" d="M 0 0 
L 0 3.5 
" style="stroke: #808080; stroke-width: 0.8"/>
      </defs>
      <g>
       <use xlink:href="#m1162149176" x="39.417273" y="139.12" style="fill: #808080; stroke: #808080; stroke-width: 0.8"/>
      </g>
     </g>
     <g id="text_1">
      <!-- 0 -->
      <g style="fill: #808080" transform="translate(36.872273 152.19875) scale(0.08 -0.08)">
       <defs>
        <path id="DejaVuSerif-30" d="M 2034 219 
Q 2513 219 2750 744 
Q 2988 1269 2988 2328 
Q 2988 3391 2750 3916 
Q 2513 4441 2034 4441 
Q 1556 4441 1318 3916 
Q 1081 3391 1081 2328 
Q 1081 1269 1318 744 
Q 1556 219 2034 219 
z
M 2034 -91 
Q 1275 -91 848 546 
Q 422 1184 422 2328 
Q 422 3475 848 4112 
Q 1275 4750 2034 4750 
Q 2797 4750 3222 4112 
Q 3647 3475 3647 2328 
Q 3647 1184 3222 546 
Q 2797 -91 2034 -91 
z
" transform="scale(0.015625)"/>
       </defs>
       <use xlink:href="#DejaVuSerif-30"/>
      </g>
     </g>
    </g>
    <g id="xtick_2">
     <g id="line2d_2">
      <g>
       <use xlink:href="#m1162149176" x="78.69404" y="139.12" style="fill: #808080; stroke: #808080; stroke-width: 0.8"/>
      </g>
     </g>
     <g id="text_2">
      <!-- 2 -->
      <g style="fill: #808080" transform="translate(76.14904 152.19875) scale(0.08 -0.08)">
       <defs>
        <path id="DejaVuSerif-32" d="M 819 3553 
L 469 3553 
L 469 4384 
Q 803 4563 1142 4656 
Q 1481 4750 1806 4750 
Q 2534 4750 2956 4397 
Q 3378 4044 3378 3438 
Q 3378 2753 2422 1800 
Q 2347 1728 2309 1691 
L 1131 513 
L 3078 513 
L 3078 1088 
L 3444 1088 
L 3444 0 
L 434 0 
L 434 341 
L 1850 1753 
Q 2319 2222 2519 2614 
Q 2719 3006 2719 3438 
Q 2719 3909 2473 4175 
Q 2228 4441 1797 4441 
Q 1350 4441 1106 4219 
Q 863 3997 819 3553 
z
" transform="scale(0.015625)"/>
       </defs>
       <use xlink:href="#DejaVuSerif-32"/>
      </g>
     </g>
    </g>
    <g id="xtick_3">
     <g id="line2d_3">
      <g>
       <use xlink:href="#m1162149176" x="117.970808" y="139.12" style="fill: #808080; stroke: #808080; stroke-width: 0.8"/>
      </g>
     </g>
     <g id="text_3">
      <!-- 4 -->
      <g style="fill: #808080" transform="translate(115.425808 152.19875) scale(0.08 -0.08)">
       <defs>
        <path id="DejaVuSerif-34" d="M 2234 1581 
L 2234 4063 
L 641 1581 
L 2234 1581 
z
M 3609 0 
L 1484 0 
L 1484 331 
L 2234 331 
L 2234 1247 
L 197 1247 
L 197 1588 
L 2241 4750 
L 2859 4750 
L 2859 1581 
L 3750 1581 
L 3750 1247 
L 2859 1247 
L 2859 331 
L 3609 331 
L 3609 0 
z
" transform="scale(0.015625)"/>
       </defs>
       <use xlink:href="#DejaVuSerif-34"/>
      </g>
     </g>
    </g>
    <g id="xtick_4">
     <g id="line2d_4">
      <g>
       <use xlink:href="#m1162149176" x="157.247576" y="139.12" style="fill: #808080; stroke: #808080; stroke-width: 0.8"/>
      </g>
     </g>
     <g id="text_4">
      <!-- 6 -->
      <g style="fill: #808080" transform="translate(154.702576 152.19875) scale(0.08 -0.08)">
       <defs>
        <path id="DejaVuSerif-36" d="M 2094 219 
Q 2534 219 2771 542 
Q 3009 866 3009 1472 
Q 3009 2078 2771 2401 
Q 2534 2725 2094 2725 
Q 1647 2725 1412 2412 
Q 1178 2100 1178 1509 
Q 1178 888 1415 553 
Q 1653 219 2094 219 
z
M 1075 2569 
Q 1288 2803 1556 2918 
Q 1825 3034 2163 3034 
Q 2859 3034 3264 2615 
Q 3669 2197 3669 1472 
Q 3669 763 3233 336 
Q 2797 -91 2069 -91 
Q 1278 -91 853 498 
Q 428 1088 428 2181 
Q 428 3406 931 4078 
Q 1434 4750 2350 4750 
Q 2597 4750 2869 4703 
Q 3141 4656 3425 4563 
L 3425 3794 
L 3072 3794 
Q 3034 4109 2831 4275 
Q 2628 4441 2284 4441 
Q 1678 4441 1381 3981 
Q 1084 3522 1075 2569 
z
" transform="scale(0.015625)"/>
       </defs>
       <use xlink:href="#DejaVuSerif-36"/>
      </g>
     </g>
    </g>
    <g id="xtick_5">
     <g id="line2d_5">
      <g>
       <use xlink:href="#m1162149176" x="196.524343" y="139.12" style="fill: #808080; stroke: #808080; stroke-width: 0.8"/>
      </g>
     </g>
     <g id="text_5">
      <!-- 8 -->
      <g style="fill: #808080" transform="translate(193.979343 152.19875) scale(0.08 -0.08)">
       <defs>
        <path id="DejaVuSerif-38" d="M 2981 1275 
Q 2981 1775 2732 2051 
Q 2484 2328 2034 2328 
Q 1584 2328 1336 2051 
Q 1088 1775 1088 1275 
Q 1088 772 1336 495 
Q 1584 219 2034 219 
Q 2484 219 2732 495 
Q 2981 772 2981 1275 
z
M 2853 3541 
Q 2853 3966 2637 4203 
Q 2422 4441 2034 4441 
Q 1650 4441 1433 4203 
Q 1216 3966 1216 3541 
Q 1216 3113 1433 2875 
Q 1650 2638 2034 2638 
Q 2422 2638 2637 2875 
Q 2853 3113 2853 3541 
z
M 2516 2484 
Q 3047 2413 3344 2092 
Q 3641 1772 3641 1275 
Q 3641 619 3225 264 
Q 2809 -91 2034 -91 
Q 1263 -91 845 264 
Q 428 619 428 1275 
Q 428 1772 725 2092 
Q 1022 2413 1556 2484 
Q 1084 2569 832 2842 
Q 581 3116 581 3541 
Q 581 4103 968 4426 
Q 1356 4750 2034 4750 
Q 2713 4750 3100 4426 
Q 3488 4103 3488 3541 
Q 3488 3116 3236 2842 
Q 2984 2569 2516 2484 
z
" transform="scale(0.015625)"/>
       </defs>
       <use xlink:href="#DejaVuSerif-38"/>
      </g>
     </g>
    </g>
    <g id="text_6">
     <!-- t -->
     <g transform="translate(125.780625 165.460937) scale(0.1 -0.1)">
      <defs>
       <path id="DejaVuSerif-74" d="M 691 2988 
L 184 2988 
L 184 3322 
L 691 3322 
L 691 4353 
L 1269 4353 
L 1269 3322 
L 2350 3322 
L 2350 2988 
L 1269 2988 
L 1269 878 
Q 1269 456 1350 337 
Q 1431 219 1650 219 
Q 1875 219 1978 351 
Q 2081 484 2088 781 
L 2522 781 
Q 2497 328 2275 118 
Q 2053 -91 1600 -91 
Q 1103 -91 897 129 
Q 691 350 691 878 
L 691 2988 
z
" transform="scale(0.015625)"/>
      </defs>
      <use xlink:href="#DejaVuSerif-74"/>
     </g>
    </g>
   </g>
   <g id="matplotlib.axis_2">
    <g id="ytick_1">
     <g id="line2d_6">
      <defs>
       <path id="m53c26dc743" d="M 0 0 
L -3.5 0 
" style="stroke: #808080; stroke-width: 0.8"/>
      </defs>
      <g>
       <use xlink:href="#m53c26dc743" x="30.58" y="134.597998" style="fill: #808080; stroke: #808080; stroke-width: 0.8"/>
      </g>
     </g>
     <g id="text_7">
      <!-- 0.0 -->
      <g style="fill: #808080" transform="translate(10.8575 137.637373) scale(0.08 -0.08)">
       <defs>
        <path id="DejaVuSerif-2e" d="M 603 325 
Q 603 500 722 622 
Q 841 744 1019 744 
Q 1191 744 1312 622 
Q 1434 500 1434 325 
Q 1434 153 1312 31 
Q 1191 -91 1019 -91 
Q 841 -91 722 29 
Q 603 150 603 325 
z
" transform="scale(0.015625)"/>
       </defs>
       <use xlink:href="#DejaVuSerif-30"/>
       <use xlink:href="#DejaVuSerif-2e" x="63.623047"/>
       <use xlink:href="#DejaVuSerif-30" x="95.410156"/>
      </g>
     </g>
    </g>
    <g id="ytick_2">
     <g id="line2d_7">
      <g>
       <use xlink:href="#m53c26dc743" x="30.58" y="108.383493" style="fill: #808080; stroke: #808080; stroke-width: 0.8"/>
      </g>
     </g>
     <g id="text_8">
      <!-- 0.2 -->
      <g style="fill: #808080" transform="translate(10.8575 111.422868) scale(0.08 -0.08)">
       <use xlink:href="#DejaVuSerif-30"/>
       <use xlink:href="#DejaVuSerif-2e" x="63.623047"/>
       <use xlink:href="#DejaVuSerif-32" x="95.410156"/>
      </g>
     </g>
    </g>
    <g id="ytick_3">
     <g id="line2d_8">
      <g>
       <use xlink:href="#m53c26dc743" x="30.58" y="82.168989" style="fill: #808080; stroke: #808080; stroke-width: 0.8"/>
      </g>
     </g>
     <g id="text_9">
      <!-- 0.4 -->
      <g style="fill: #808080" transform="translate(10.8575 85.208364) scale(0.08 -0.08)">
       <use xlink:href="#DejaVuSerif-30"/>
       <use xlink:href="#DejaVuSerif-2e" x="63.623047"/>
       <use xlink:href="#DejaVuSerif-34" x="95.410156"/>
      </g>
     </g>
    </g>
    <g id="ytick_4">
     <g id="line2d_9">
      <g>
       <use xlink:href="#m53c26dc743" x="30.58" y="55.954484" style="fill: #808080; stroke: #808080; stroke-width: 0.8"/>
      </g>
     </g>
     <g id="text_10">
      <!-- 0.6 -->
      <g style="fill: #808080" transform="translate(10.8575 58.993859) scale(0.08 -0.08)">
       <use xlink:href="#DejaVuSerif-30"/>
       <use xlink:href="#DejaVuSerif-2e" x="63.623047"/>
       <use xlink:href="#DejaVuSerif-36" x="95.410156"/>
      </g>
     </g>
    </g>
    <g id="ytick_5">
     <g id="line2d_10">
      <g>
       <use xlink:href="#m53c26dc743" x="30.58" y="29.73998" style="fill: #808080; stroke: #808080; stroke-width: 0.8"/>
      </g>
     </g>
     <g id="text_11">
      <!-- 0.8 -->
      <g style="fill: #808080" transform="translate(10.8575 32.779355) scale(0.08 -0.08)">
       <use xlink:href="#DejaVuSerif-30"/>
       <use xlink:href="#DejaVuSerif-2e" x="63.623047"/>
       <use xlink:href="#DejaVuSerif-38" x="95.410156"/>
      </g>
     </g>
    </g>
   </g>
   <g id="line2d_11">
    <path d="M 39.417273 133.287273 
L 59.055657 130.338141 
L 78.69404 127.389009 
L 98.332424 124.439877 
L 117.970808 121.490746 
L 137.609192 121.490746 
L 157.247576 95.276241 
L 176.88596 69.061736 
L 196.524343 42.847232 
L 216.162727 16.632727 
" clip-path="url(#p31c9602323)" style="fill: none; stroke: #faba9d; stroke-width: 1.5; stroke-linecap: square"/>
    <defs>
     <path id="m182e7109ba" d="M 0 1.5 
C 0.397805 1.5 0.77937 1.341951 1.06066 1.06066 
C 1.341951 0.77937 1.5 0.397805 1.5 0 
C 1.5 -0.397805 1.341951 -0.77937 1.06066 -1.06066 
C 0.77937 -1.341951 0.397805 -1.5 0 -1.5 
C -0.397805 -1.5 -0.77937 -1.341951 -1.06066 -1.06066 
C -1.341951 -0.77937 -1.5 -0.397805 -1.5 0 
C -1.5 0.397805 -1.341951 0.77937 -1.06066 1.06066 
C -0.77937 1.341951 -0.397805 1.5 0 1.5 
z
" style="stroke: #faba9d"/>
    </defs>
    <g clip-path="url(#p31c9602323)">
     <use xlink:href="#m182e7109ba" x="39.417273" y="133.287273" style="fill: #faba9d; stroke: #faba9d"/>
     <use xlink:href="#m182e7109ba" x="59.055657" y="130.338141" style="fill: #faba9d; stroke: #faba9d"/>
     <use xlink:href="#m182e7109ba" x="78.69404" y="127.389009" style="fill: #faba9d; stroke: #faba9d"/>
     <use xlink:href="#m182e7109ba" x="98.332424" y="124.439877" style="fill: #faba9d; stroke: #faba9d"/>
     <use xlink:href="#m182e7109ba" x="117.970808" y="121.490746" style="fill: #faba9d; stroke: #faba9d"/>
     <use xlink:href="#m182e7109ba" x="137.609192" y="121.490746" style="fill: #faba9d; stroke: #faba9d"/>
     <use xlink:href="#m182e7109ba" x="157.247576" y="95.276241" style="fill: #faba9d; stroke: #faba9d"/>
     <use xlink:href="#m182e7109ba" x="176.88596" y="69.061736" style="fill: #faba9d; stroke: #faba9d"/>
     <use xlink:href="#m182e7109ba" x="196.524343" y="42.847232" style="fill: #faba9d; stroke: #faba9d"/>
     <use xlink:href="#m182e7109ba" x="216.162727" y="16.632727" style="fill: #faba9d; stroke: #faba9d"/>
    </g>
   </g>
   <g id="patch_3">
    <path d="M 30.58 139.12 
L 30.58 10.8 
" style="fill: none; stroke: #000000; stroke-width: 0.8; stroke-linejoin: miter; stroke-linecap: square"/>
   </g>
   <g id="patch_4">
    <path d="M 30.58 139.12 
L 225 139.12 
" style="fill: none; stroke: #000000; stroke-width: 0.8; stroke-linejoin: miter; stroke-linecap: square"/>
   </g>
   <g id="legend_1">
    <g id="line2d_12">
     <path d="M 39.58 24 
L 49.58 24 
L 59.58 24 
" style="fill: none; stroke: #faba9d; stroke-width: 1.5; stroke-linecap: square"/>
     <g>
      <use xlink:href="#m182e7109ba" x="49.58" y="24" style="fill: #faba9d; stroke: #faba9d"/>
     </g>
    </g>
    <g id="text_12">
     <!-- $\beta_t$ -->
     <g transform="translate(67.58 27.5) scale(0.1 -0.1)">
      <defs>
       <path id="DejaVuSans-Oblique-3b2" d="M 872 216 
L 572 -1331 
L -6 -1331 
L 928 3478 
Q 1206 4903 2538 4903 
Q 3888 4903 3659 3700 
Q 3503 2844 2894 2531 
Q 3713 2250 3553 1416 
Q 3272 -69 1759 -66 
Q 1097 -63 872 216 
z
M 1019 966 
Q 1259 422 1875 425 
Q 2775 425 2966 1406 
Q 3138 2288 1675 2219 
L 1778 2750 
Q 2909 2731 3106 3750 
Q 3241 4438 2509 4434 
Q 1691 4434 1503 3459 
L 1019 966 
z
" transform="scale(0.015625)"/>
       <path id="DejaVuSans-Oblique-74" d="M 2706 3500 
L 2619 3053 
L 1472 3053 
L 1100 1153 
Q 1081 1047 1072 975 
Q 1063 903 1063 863 
Q 1063 663 1183 572 
Q 1303 481 1569 481 
L 2150 481 
L 2053 0 
L 1503 0 
Q 991 0 739 200 
Q 488 400 488 806 
Q 488 878 497 964 
Q 506 1050 525 1153 
L 897 3053 
L 409 3053 
L 500 3500 
L 978 3500 
L 1172 4494 
L 1747 4494 
L 1556 3500 
L 2706 3500 
z
" transform="scale(0.015625)"/>
      </defs>
      <use xlink:href="#DejaVuSans-Oblique-3b2" transform="translate(0 0.390625)"/>
      <use xlink:href="#DejaVuSans-Oblique-74" transform="translate(63.818359 -16.015625) scale(0.7)"/>
     </g>
    </g>
   </g>
  </g>
  <g id="axes_2">
   <g id="patch_5">
    <path d="M 255.58 139.12 
L 450 139.12 
L 450 10.8 
L 255.58 10.8 
z
" style="fill: #ffffff"/>
   </g>
   <g id="matplotlib.axis_3">
    <g id="xtick_6">
     <g id="line2d_13">
      <g>
       <use xlink:href="#m1162149176" x="264.417273" y="139.12" style="fill: #808080; stroke: #808080; stroke-width: 0.8"/>
      </g>
     </g>
     <g id="text_13">
      <!-- 0 -->
      <g style="fill: #808080" transform="translate(261.872273 152.19875) scale(0.08 -0.08)">
       <use xlink:href="#DejaVuSerif-30"/>
      </g>
     </g>
    </g>
    <g id="xtick_7">
     <g id="line2d_14">
      <g>
       <use xlink:href="#m1162149176" x="303.69404" y="139.12" style="fill: #808080; stroke: #808080; stroke-width: 0.8"/>
      </g>
     </g>
     <g id="text_14">
      <!-- 2 -->
      <g style="fill: #808080" transform="translate(301.14904 152.19875) scale(0.08 -0.08)">
       <use xlink:href="#DejaVuSerif-32"/>
      </g>
     </g>
    </g>
    <g id="xtick_8">
     <g id="line2d_15">
      <g>
       <use xlink:href="#m1162149176" x="342.970808" y="139.12" style="fill: #808080; stroke: #808080; stroke-width: 0.8"/>
      </g>
     </g>
     <g id="text_15">
      <!-- 4 -->
      <g style="fill: #808080" transform="translate(340.425808 152.19875) scale(0.08 -0.08)">
       <use xlink:href="#DejaVuSerif-34"/>
      </g>
     </g>
    </g>
    <g id="xtick_9">
     <g id="line2d_16">
      <g>
       <use xlink:href="#m1162149176" x="382.247576" y="139.12" style="fill: #808080; stroke: #808080; stroke-width: 0.8"/>
      </g>
     </g>
     <g id="text_16">
      <!-- 6 -->
      <g style="fill: #808080" transform="translate(379.702576 152.19875) scale(0.08 -0.08)">
       <use xlink:href="#DejaVuSerif-36"/>
      </g>
     </g>
    </g>
    <g id="xtick_10">
     <g id="line2d_17">
      <g>
       <use xlink:href="#m1162149176" x="421.524343" y="139.12" style="fill: #808080; stroke: #808080; stroke-width: 0.8"/>
      </g>
     </g>
     <g id="text_17">
      <!-- 8 -->
      <g style="fill: #808080" transform="translate(418.979343 152.19875) scale(0.08 -0.08)">
       <use xlink:href="#DejaVuSerif-38"/>
      </g>
     </g>
    </g>
    <g id="text_18">
     <!-- t -->
     <g transform="translate(350.780625 165.460937) scale(0.1 -0.1)">
      <use xlink:href="#DejaVuSerif-74"/>
     </g>
    </g>
   </g>
   <g id="matplotlib.axis_4">
    <g id="ytick_6">
     <g id="line2d_18">
      <g>
       <use xlink:href="#m53c26dc743" x="255.58" y="120.18002" style="fill: #808080; stroke: #808080; stroke-width: 0.8"/>
      </g>
     </g>
     <g id="text_19">
      <!-- 0.2 -->
      <g style="fill: #808080" transform="translate(235.8575 123.219395) scale(0.08 -0.08)">
       <use xlink:href="#DejaVuSerif-30"/>
       <use xlink:href="#DejaVuSerif-2e" x="63.623047"/>
       <use xlink:href="#DejaVuSerif-32" x="95.410156"/>
      </g>
     </g>
    </g>
    <g id="ytick_7">
     <g id="line2d_19">
      <g>
       <use xlink:href="#m53c26dc743" x="255.58" y="93.965516" style="fill: #808080; stroke: #808080; stroke-width: 0.8"/>
      </g>
     </g>
     <g id="text_20">
      <!-- 0.4 -->
      <g style="fill: #808080" transform="translate(235.8575 97.004891) scale(0.08 -0.08)">
       <use xlink:href="#DejaVuSerif-30"/>
       <use xlink:href="#DejaVuSerif-2e" x="63.623047"/>
       <use xlink:href="#DejaVuSerif-34" x="95.410156"/>
      </g>
     </g>
    </g>
    <g id="ytick_8">
     <g id="line2d_20">
      <g>
       <use xlink:href="#m53c26dc743" x="255.58" y="67.751011" style="fill: #808080; stroke: #808080; stroke-width: 0.8"/>
      </g>
     </g>
     <g id="text_21">
      <!-- 0.6 -->
      <g style="fill: #808080" transform="translate(235.8575 70.790386) scale(0.08 -0.08)">
       <use xlink:href="#DejaVuSerif-30"/>
       <use xlink:href="#DejaVuSerif-2e" x="63.623047"/>
       <use xlink:href="#DejaVuSerif-36" x="95.410156"/>
      </g>
     </g>
    </g>
    <g id="ytick_9">
     <g id="line2d_21">
      <g>
       <use xlink:href="#m53c26dc743" x="255.58" y="41.536507" style="fill: #808080; stroke: #808080; stroke-width: 0.8"/>
      </g>
     </g>
     <g id="text_22">
      <!-- 0.8 -->
      <g style="fill: #808080" transform="translate(235.8575 44.575882) scale(0.08 -0.08)">
       <use xlink:href="#DejaVuSerif-30"/>
       <use xlink:href="#DejaVuSerif-2e" x="63.623047"/>
       <use xlink:href="#DejaVuSerif-38" x="95.410156"/>
      </g>
     </g>
    </g>
    <g id="ytick_10">
     <g id="line2d_22">
      <g>
       <use xlink:href="#m53c26dc743" x="255.58" y="15.322002" style="fill: #808080; stroke: #808080; stroke-width: 0.8"/>
      </g>
     </g>
     <g id="text_23">
      <!-- 1.0 -->
      <g style="fill: #808080" transform="translate(235.8575 18.361377) scale(0.08 -0.08)">
       <defs>
        <path id="DejaVuSerif-31" d="M 909 0 
L 909 331 
L 1722 331 
L 1722 4213 
L 781 3603 
L 781 4013 
L 1919 4750 
L 2350 4750 
L 2350 331 
L 3163 331 
L 3163 0 
L 909 0 
z
" transform="scale(0.015625)"/>
       </defs>
       <use xlink:href="#DejaVuSerif-31"/>
       <use xlink:href="#DejaVuSerif-2e" x="63.623047"/>
       <use xlink:href="#DejaVuSerif-30" x="95.410156"/>
      </g>
     </g>
    </g>
   </g>
   <g id="line2d_23">
    <path d="M 264.417273 16.632727 
L 284.055657 19.581859 
L 303.69404 22.530991 
L 323.332424 25.480123 
L 342.970808 28.429254 
L 362.609192 28.429254 
L 382.247576 54.643759 
L 401.88596 80.858264 
L 421.524343 107.072768 
L 441.162727 133.287273 
" clip-path="url(#p443138e2f8)" style="fill: none; stroke: #edb8b0; stroke-width: 1.5; stroke-linecap: square"/>
    <defs>
     <path id="m07ed2e9eff" d="M 0 1.5 
C 0.397805 1.5 0.77937 1.341951 1.06066 1.06066 
C 1.341951 0.77937 1.5 0.397805 1.5 0 
C 1.5 -0.397805 1.341951 -0.77937 1.06066 -1.06066 
C 0.77937 -1.341951 0.397805 -1.5 0 -1.5 
C -0.397805 -1.5 -0.77937 -1.341951 -1.06066 -1.06066 
C -1.341951 -0.77937 -1.5 -0.397805 -1.5 0 
C -1.5 0.397805 -1.341951 0.77937 -1.06066 1.06066 
C -0.77937 1.341951 -0.397805 1.5 0 1.5 
z
" style="stroke: #edb8b0"/>
    </defs>
    <g clip-path="url(#p443138e2f8)">
     <use xlink:href="#m07ed2e9eff" x="264.417273" y="16.632727" style="fill: #edb8b0; stroke: #edb8b0"/>
     <use xlink:href="#m07ed2e9eff" x="284.055657" y="19.581859" style="fill: #edb8b0; stroke: #edb8b0"/>
     <use xlink:href="#m07ed2e9eff" x="303.69404" y="22.530991" style="fill: #edb8b0; stroke: #edb8b0"/>
     <use xlink:href="#m07ed2e9eff" x="323.332424" y="25.480123" style="fill: #edb8b0; stroke: #edb8b0"/>
     <use xlink:href="#m07ed2e9eff" x="342.970808" y="28.429254" style="fill: #edb8b0; stroke: #edb8b0"/>
     <use xlink:href="#m07ed2e9eff" x="362.609192" y="28.429254" style="fill: #edb8b0; stroke: #edb8b0"/>
     <use xlink:href="#m07ed2e9eff" x="382.247576" y="54.643759" style="fill: #edb8b0; stroke: #edb8b0"/>
     <use xlink:href="#m07ed2e9eff" x="401.88596" y="80.858264" style="fill: #edb8b0; stroke: #edb8b0"/>
     <use xlink:href="#m07ed2e9eff" x="421.524343" y="107.072768" style="fill: #edb8b0; stroke: #edb8b0"/>
     <use xlink:href="#m07ed2e9eff" x="441.162727" y="133.287273" style="fill: #edb8b0; stroke: #edb8b0"/>
    </g>
   </g>
   <g id="patch_6">
    <path d="M 255.58 139.12 
L 255.58 10.8 
" style="fill: none; stroke: #000000; stroke-width: 0.8; stroke-linejoin: miter; stroke-linecap: square"/>
   </g>
   <g id="patch_7">
    <path d="M 255.58 139.12 
L 450 139.12 
" style="fill: none; stroke: #000000; stroke-width: 0.8; stroke-linejoin: miter; stroke-linecap: square"/>
   </g>
   <g id="legend_2">
    <g id="line2d_24">
     <path d="M 403.3 23.898438 
L 413.3 23.898438 
L 423.3 23.898438 
" style="fill: none; stroke: #edb8b0; stroke-width: 1.5; stroke-linecap: square"/>
     <g>
      <use xlink:href="#m07ed2e9eff" x="413.3" y="23.898438" style="fill: #edb8b0; stroke: #edb8b0"/>
     </g>
    </g>
    <g id="text_24">
     <!-- $\alpha_t$ -->
     <g transform="translate(431.3 27.398438) scale(0.1 -0.1)">
      <defs>
       <path id="DejaVuSans-Oblique-3b1" d="M 2619 1628 
L 2622 2350 
Q 2625 3088 2069 3091 
Q 1653 3094 1394 2747 
Q 1069 2319 959 1747 
Q 825 1059 994 731 
Q 1169 397 1547 397 
Q 1966 397 2319 1063 
L 2619 1628 
z
M 2166 3578 
Q 3141 3594 3128 2584 
Q 3128 2584 3616 3500 
L 4128 3500 
L 3119 1603 
L 3109 919 
Q 3109 766 3194 638 
Q 3291 488 3391 488 
L 3669 488 
L 3575 0 
L 3228 0 
Q 2934 0 2722 263 
Q 2622 394 2619 669 
Q 2416 334 2066 50 
Q 1900 -81 1453 -78 
Q 722 -72 456 397 
Q 184 884 353 1747 
Q 534 2675 1009 3097 
Q 1544 3569 2166 3578 
z
" transform="scale(0.015625)"/>
      </defs>
      <use xlink:href="#DejaVuSans-Oblique-3b1" transform="translate(0 0.84375)"/>
      <use xlink:href="#DejaVuSans-Oblique-74" transform="translate(65.917969 -15.5625) scale(0.7)"/>
     </g>
    </g>
   </g>
  </g>
  <g id="axes_3">
   <g id="patch_8">
    <path d="M 30.58 306.52 
L 225 306.52 
L 225 178.2 
L 30.58 178.2 
z
" style="fill: #ffffff"/>
   </g>
   <g id="matplotlib.axis_5">
    <g id="xtick_11">
     <g id="line2d_25">
      <g>
       <use xlink:href="#m1162149176" x="39.417273" y="306.52" style="fill: #808080; stroke: #808080; stroke-width: 0.8"/>
      </g>
     </g>
     <g id="text_25">
      <!-- 0 -->
      <g style="fill: #808080" transform="translate(36.872273 319.59875) scale(0.08 -0.08)">
       <use xlink:href="#DejaVuSerif-30"/>
      </g>
     </g>
    </g>
    <g id="xtick_12">
     <g id="line2d_26">
      <g>
       <use xlink:href="#m1162149176" x="78.69404" y="306.52" style="fill: #808080; stroke: #808080; stroke-width: 0.8"/>
      </g>
     </g>
     <g id="text_26">
      <!-- 2 -->
      <g style="fill: #808080" transform="translate(76.14904 319.59875) scale(0.08 -0.08)">
       <use xlink:href="#DejaVuSerif-32"/>
      </g>
     </g>
    </g>
    <g id="xtick_13">
     <g id="line2d_27">
      <g>
       <use xlink:href="#m1162149176" x="117.970808" y="306.52" style="fill: #808080; stroke: #808080; stroke-width: 0.8"/>
      </g>
     </g>
     <g id="text_27">
      <!-- 4 -->
      <g style="fill: #808080" transform="translate(115.425808 319.59875) scale(0.08 -0.08)">
       <use xlink:href="#DejaVuSerif-34"/>
      </g>
     </g>
    </g>
    <g id="xtick_14">
     <g id="line2d_28">
      <g>
       <use xlink:href="#m1162149176" x="157.247576" y="306.52" style="fill: #808080; stroke: #808080; stroke-width: 0.8"/>
      </g>
     </g>
     <g id="text_28">
      <!-- 6 -->
      <g style="fill: #808080" transform="translate(154.702576 319.59875) scale(0.08 -0.08)">
       <use xlink:href="#DejaVuSerif-36"/>
      </g>
     </g>
    </g>
    <g id="xtick_15">
     <g id="line2d_29">
      <g>
       <use xlink:href="#m1162149176" x="196.524343" y="306.52" style="fill: #808080; stroke: #808080; stroke-width: 0.8"/>
      </g>
     </g>
     <g id="text_29">
      <!-- 8 -->
      <g style="fill: #808080" transform="translate(193.979343 319.59875) scale(0.08 -0.08)">
       <use xlink:href="#DejaVuSerif-38"/>
      </g>
     </g>
    </g>
    <g id="text_30">
     <!-- t -->
     <g transform="translate(125.780625 332.860937) scale(0.1 -0.1)">
      <use xlink:href="#DejaVuSerif-74"/>
     </g>
    </g>
   </g>
   <g id="matplotlib.axis_6">
    <g id="ytick_11">
     <g id="line2d_30">
      <g>
       <use xlink:href="#m53c26dc743" x="30.58" y="301.530126" style="fill: #808080; stroke: #808080; stroke-width: 0.8"/>
      </g>
     </g>
     <g id="text_31">
      <!-- 0.0 -->
      <g style="fill: #808080" transform="translate(10.8575 304.569501) scale(0.08 -0.08)">
       <use xlink:href="#DejaVuSerif-30"/>
       <use xlink:href="#DejaVuSerif-2e" x="63.623047"/>
       <use xlink:href="#DejaVuSerif-30" x="95.410156"/>
      </g>
     </g>
    </g>
    <g id="ytick_12">
     <g id="line2d_31">
      <g>
       <use xlink:href="#m53c26dc743" x="30.58" y="277.793277" style="fill: #808080; stroke: #808080; stroke-width: 0.8"/>
      </g>
     </g>
     <g id="text_32">
      <!-- 0.2 -->
      <g style="fill: #808080" transform="translate(10.8575 280.832652) scale(0.08 -0.08)">
       <use xlink:href="#DejaVuSerif-30"/>
       <use xlink:href="#DejaVuSerif-2e" x="63.623047"/>
       <use xlink:href="#DejaVuSerif-32" x="95.410156"/>
      </g>
     </g>
    </g>
    <g id="ytick_13">
     <g id="line2d_32">
      <g>
       <use xlink:href="#m53c26dc743" x="30.58" y="254.056429" style="fill: #808080; stroke: #808080; stroke-width: 0.8"/>
      </g>
     </g>
     <g id="text_33">
      <!-- 0.4 -->
      <g style="fill: #808080" transform="translate(10.8575 257.095804) scale(0.08 -0.08)">
       <use xlink:href="#DejaVuSerif-30"/>
       <use xlink:href="#DejaVuSerif-2e" x="63.623047"/>
       <use xlink:href="#DejaVuSerif-34" x="95.410156"/>
      </g>
     </g>
    </g>
    <g id="ytick_14">
     <g id="line2d_33">
      <g>
       <use xlink:href="#m53c26dc743" x="30.58" y="230.319581" style="fill: #808080; stroke: #808080; stroke-width: 0.8"/>
      </g>
     </g>
     <g id="text_34">
      <!-- 0.6 -->
      <g style="fill: #808080" transform="translate(10.8575 233.358956) scale(0.08 -0.08)">
       <use xlink:href="#DejaVuSerif-30"/>
       <use xlink:href="#DejaVuSerif-2e" x="63.623047"/>
       <use xlink:href="#DejaVuSerif-36" x="95.410156"/>
      </g>
     </g>
    </g>
    <g id="ytick_15">
     <g id="line2d_34">
      <g>
       <use xlink:href="#m53c26dc743" x="30.58" y="206.582733" style="fill: #808080; stroke: #808080; stroke-width: 0.8"/>
      </g>
     </g>
     <g id="text_35">
      <!-- 0.8 -->
      <g style="fill: #808080" transform="translate(10.8575 209.622108) scale(0.08 -0.08)">
       <use xlink:href="#DejaVuSerif-30"/>
       <use xlink:href="#DejaVuSerif-2e" x="63.623047"/>
       <use xlink:href="#DejaVuSerif-38" x="95.410156"/>
      </g>
     </g>
    </g>
    <g id="ytick_16">
     <g id="line2d_35">
      <g>
       <use xlink:href="#m53c26dc743" x="30.58" y="182.845885" style="fill: #808080; stroke: #808080; stroke-width: 0.8"/>
      </g>
     </g>
     <g id="text_36">
      <!-- 1.0 -->
      <g style="fill: #808080" transform="translate(10.8575 185.88526) scale(0.08 -0.08)">
       <use xlink:href="#DejaVuSerif-31"/>
       <use xlink:href="#DejaVuSerif-2e" x="63.623047"/>
       <use xlink:href="#DejaVuSerif-30" x="95.410156"/>
      </g>
     </g>
    </g>
   </g>
   <g id="line2d_36">
    <path d="M 39.417273 184.032727 
L 59.055657 187.851393 
L 78.69404 194.103723 
L 98.332424 202.429269 
L 117.970808 212.339355 
L 137.609192 221.258432 
L 157.247576 245.33994 
L 176.88596 273.435033 
L 196.524343 293.101598 
L 216.162727 300.687273 
" clip-path="url(#p808b1d9764)" style="fill: none; stroke: #dfb7c3; stroke-width: 1.5; stroke-linecap: square"/>
    <defs>
     <path id="madc6407443" d="M 0 1.5 
C 0.397805 1.5 0.77937 1.341951 1.06066 1.06066 
C 1.341951 0.77937 1.5 0.397805 1.5 0 
C 1.5 -0.397805 1.341951 -0.77937 1.06066 -1.06066 
C 0.77937 -1.341951 0.397805 -1.5 0 -1.5 
C -0.397805 -1.5 -0.77937 -1.341951 -1.06066 -1.06066 
C -1.341951 -0.77937 -1.5 -0.397805 -1.5 0 
C -1.5 0.397805 -1.341951 0.77937 -1.06066 1.06066 
C -0.77937 1.341951 -0.397805 1.5 0 1.5 
z
" style="stroke: #dfb7c3"/>
    </defs>
    <g clip-path="url(#p808b1d9764)">
     <use xlink:href="#madc6407443" x="39.417273" y="184.032727" style="fill: #dfb7c3; stroke: #dfb7c3"/>
     <use xlink:href="#madc6407443" x="59.055657" y="187.851393" style="fill: #dfb7c3; stroke: #dfb7c3"/>
     <use xlink:href="#madc6407443" x="78.69404" y="194.103723" style="fill: #dfb7c3; stroke: #dfb7c3"/>
     <use xlink:href="#madc6407443" x="98.332424" y="202.429269" style="fill: #dfb7c3; stroke: #dfb7c3"/>
     <use xlink:href="#madc6407443" x="117.970808" y="212.339355" style="fill: #dfb7c3; stroke: #dfb7c3"/>
     <use xlink:href="#madc6407443" x="137.609192" y="221.258432" style="fill: #dfb7c3; stroke: #dfb7c3"/>
     <use xlink:href="#madc6407443" x="157.247576" y="245.33994" style="fill: #dfb7c3; stroke: #dfb7c3"/>
     <use xlink:href="#madc6407443" x="176.88596" y="273.435033" style="fill: #dfb7c3; stroke: #dfb7c3"/>
     <use xlink:href="#madc6407443" x="196.524343" y="293.101598" style="fill: #dfb7c3; stroke: #dfb7c3"/>
     <use xlink:href="#madc6407443" x="216.162727" y="300.687273" style="fill: #dfb7c3; stroke: #dfb7c3"/>
    </g>
   </g>
   <g id="patch_9">
    <path d="M 30.58 306.52 
L 30.58 178.2 
" style="fill: none; stroke: #000000; stroke-width: 0.8; stroke-linejoin: miter; stroke-linecap: square"/>
   </g>
   <g id="patch_10">
    <path d="M 30.58 306.52 
L 225 306.52 
" style="fill: none; stroke: #000000; stroke-width: 0.8; stroke-linejoin: miter; stroke-linecap: square"/>
   </g>
   <g id="legend_3">
    <g id="line2d_37">
     <path d="M 178.2 191.298437 
L 188.2 191.298437 
L 198.2 191.298437 
" style="fill: none; stroke: #dfb7c3; stroke-width: 1.5; stroke-linecap: square"/>
     <g>
      <use xlink:href="#madc6407443" x="188.2" y="191.298437" style="fill: #dfb7c3; stroke: #dfb7c3"/>
     </g>
    </g>
    <g id="text_37">
     <!-- $\bar{\alpha}_t$ -->
     <g transform="translate(206.2 194.798437) scale(0.1 -0.1)">
      <defs>
       <path id="DejaVuSans-304" d="M -2522 4769 
L -653 4769 
L -653 4306 
L -2522 4306 
L -2522 4769 
z
" transform="scale(0.015625)"/>
      </defs>
      <use xlink:href="#DejaVuSans-304" transform="translate(65.885742 1.484375)"/>
      <use xlink:href="#DejaVuSans-Oblique-3b1" transform="translate(0 0.109375)"/>
      <use xlink:href="#DejaVuSans-Oblique-74" transform="translate(66.875 -16.296875) scale(0.7)"/>
     </g>
    </g>
   </g>
  </g>
  <g id="axes_4">
   <g id="patch_11">
    <path d="M 255.58 306.52 
L 450 306.52 
L 450 178.2 
L 255.58 178.2 
z
" style="fill: #ffffff"/>
   </g>
   <g id="matplotlib.axis_7">
    <g id="xtick_16">
     <g id="line2d_38">
      <g>
       <use xlink:href="#m1162149176" x="264.417273" y="306.52" style="fill: #808080; stroke: #808080; stroke-width: 0.8"/>
      </g>
     </g>
     <g id="text_38">
      <!-- 0 -->
      <g style="fill: #808080" transform="translate(261.872273 319.59875) scale(0.08 -0.08)">
       <use xlink:href="#DejaVuSerif-30"/>
      </g>
     </g>
    </g>
    <g id="xtick_17">
     <g id="line2d_39">
      <g>
       <use xlink:href="#m1162149176" x="303.69404" y="306.52" style="fill: #808080; stroke: #808080; stroke-width: 0.8"/>
      </g>
     </g>
     <g id="text_39">
      <!-- 2 -->
      <g style="fill: #808080" transform="translate(301.14904 319.59875) scale(0.08 -0.08)">
       <use xlink:href="#DejaVuSerif-32"/>
      </g>
     </g>
    </g>
    <g id="xtick_18">
     <g id="line2d_40">
      <g>
       <use xlink:href="#m1162149176" x="342.970808" y="306.52" style="fill: #808080; stroke: #808080; stroke-width: 0.8"/>
      </g>
     </g>
     <g id="text_40">
      <!-- 4 -->
      <g style="fill: #808080" transform="translate(340.425808 319.59875) scale(0.08 -0.08)">
       <use xlink:href="#DejaVuSerif-34"/>
      </g>
     </g>
    </g>
    <g id="xtick_19">
     <g id="line2d_41">
      <g>
       <use xlink:href="#m1162149176" x="382.247576" y="306.52" style="fill: #808080; stroke: #808080; stroke-width: 0.8"/>
      </g>
     </g>
     <g id="text_41">
      <!-- 6 -->
      <g style="fill: #808080" transform="translate(379.702576 319.59875) scale(0.08 -0.08)">
       <use xlink:href="#DejaVuSerif-36"/>
      </g>
     </g>
    </g>
    <g id="xtick_20">
     <g id="line2d_42">
      <g>
       <use xlink:href="#m1162149176" x="421.524343" y="306.52" style="fill: #808080; stroke: #808080; stroke-width: 0.8"/>
      </g>
     </g>
     <g id="text_42">
      <!-- 8 -->
      <g style="fill: #808080" transform="translate(418.979343 319.59875) scale(0.08 -0.08)">
       <use xlink:href="#DejaVuSerif-38"/>
      </g>
     </g>
    </g>
    <g id="text_43">
     <!-- t -->
     <g transform="translate(350.780625 332.860937) scale(0.1 -0.1)">
      <use xlink:href="#DejaVuSerif-74"/>
     </g>
    </g>
   </g>
   <g id="matplotlib.axis_8">
    <g id="ytick_17">
     <g id="line2d_43">
      <g>
       <use xlink:href="#m53c26dc743" x="255.58" y="286.941916" style="fill: #808080; stroke: #808080; stroke-width: 0.8"/>
      </g>
     </g>
     <g id="text_44">
      <!-- 0.2 -->
      <g style="fill: #808080" transform="translate(235.8575 289.981291) scale(0.08 -0.08)">
       <use xlink:href="#DejaVuSerif-30"/>
       <use xlink:href="#DejaVuSerif-2e" x="63.623047"/>
       <use xlink:href="#DejaVuSerif-32" x="95.410156"/>
      </g>
     </g>
    </g>
    <g id="ytick_18">
     <g id="line2d_44">
      <g>
       <use xlink:href="#m53c26dc743" x="255.58" y="259.451203" style="fill: #808080; stroke: #808080; stroke-width: 0.8"/>
      </g>
     </g>
     <g id="text_45">
      <!-- 0.4 -->
      <g style="fill: #808080" transform="translate(235.8575 262.490578) scale(0.08 -0.08)">
       <use xlink:href="#DejaVuSerif-30"/>
       <use xlink:href="#DejaVuSerif-2e" x="63.623047"/>
       <use xlink:href="#DejaVuSerif-34" x="95.410156"/>
      </g>
     </g>
    </g>
    <g id="ytick_19">
     <g id="line2d_45">
      <g>
       <use xlink:href="#m53c26dc743" x="255.58" y="231.96049" style="fill: #808080; stroke: #808080; stroke-width: 0.8"/>
      </g>
     </g>
     <g id="text_46">
      <!-- 0.6 -->
      <g style="fill: #808080" transform="translate(235.8575 234.999865) scale(0.08 -0.08)">
       <use xlink:href="#DejaVuSerif-30"/>
       <use xlink:href="#DejaVuSerif-2e" x="63.623047"/>
       <use xlink:href="#DejaVuSerif-36" x="95.410156"/>
      </g>
     </g>
    </g>
    <g id="ytick_20">
     <g id="line2d_46">
      <g>
       <use xlink:href="#m53c26dc743" x="255.58" y="204.469777" style="fill: #808080; stroke: #808080; stroke-width: 0.8"/>
      </g>
     </g>
     <g id="text_47">
      <!-- 0.8 -->
      <g style="fill: #808080" transform="translate(235.8575 207.509152) scale(0.08 -0.08)">
       <use xlink:href="#DejaVuSerif-30"/>
       <use xlink:href="#DejaVuSerif-2e" x="63.623047"/>
       <use xlink:href="#DejaVuSerif-38" x="95.410156"/>
      </g>
     </g>
    </g>
   </g>
   <g id="line2d_47">
    <path d="M 264.417273 300.687273 
L 284.055657 289.652835 
L 303.69404 282.196911 
L 323.332424 276.167176 
L 342.970808 270.965995 
L 362.609192 270.965995 
L 382.247576 239.146211 
L 401.88596 217.238281 
L 421.524343 199.430725 
L 441.162727 184.032727 
" clip-path="url(#p70ea85adac)" style="fill: none; stroke: #cfb5d6; stroke-width: 1.5; stroke-linecap: square"/>
    <defs>
     <path id="m492898b5d7" d="M 0 1.5 
C 0.397805 1.5 0.77937 1.341951 1.06066 1.06066 
C 1.341951 0.77937 1.5 0.397805 1.5 0 
C 1.5 -0.397805 1.341951 -0.77937 1.06066 -1.06066 
C 0.77937 -1.341951 0.397805 -1.5 0 -1.5 
C -0.397805 -1.5 -0.77937 -1.341951 -1.06066 -1.06066 
C -1.341951 -0.77937 -1.5 -0.397805 -1.5 0 
C -1.5 0.397805 -1.341951 0.77937 -1.06066 1.06066 
C -0.77937 1.341951 -0.397805 1.5 0 1.5 
z
" style="stroke: #cfb5d6"/>
    </defs>
    <g clip-path="url(#p70ea85adac)">
     <use xlink:href="#m492898b5d7" x="264.417273" y="300.687273" style="fill: #cfb5d6; stroke: #cfb5d6"/>
     <use xlink:href="#m492898b5d7" x="284.055657" y="289.652835" style="fill: #cfb5d6; stroke: #cfb5d6"/>
     <use xlink:href="#m492898b5d7" x="303.69404" y="282.196911" style="fill: #cfb5d6; stroke: #cfb5d6"/>
     <use xlink:href="#m492898b5d7" x="323.332424" y="276.167176" style="fill: #cfb5d6; stroke: #cfb5d6"/>
     <use xlink:href="#m492898b5d7" x="342.970808" y="270.965995" style="fill: #cfb5d6; stroke: #cfb5d6"/>
     <use xlink:href="#m492898b5d7" x="362.609192" y="270.965995" style="fill: #cfb5d6; stroke: #cfb5d6"/>
     <use xlink:href="#m492898b5d7" x="382.247576" y="239.146211" style="fill: #cfb5d6; stroke: #cfb5d6"/>
     <use xlink:href="#m492898b5d7" x="401.88596" y="217.238281" style="fill: #cfb5d6; stroke: #cfb5d6"/>
     <use xlink:href="#m492898b5d7" x="421.524343" y="199.430725" style="fill: #cfb5d6; stroke: #cfb5d6"/>
     <use xlink:href="#m492898b5d7" x="441.162727" y="184.032727" style="fill: #cfb5d6; stroke: #cfb5d6"/>
    </g>
   </g>
   <g id="patch_12">
    <path d="M 255.58 306.52 
L 255.58 178.2 
" style="fill: none; stroke: #000000; stroke-width: 0.8; stroke-linejoin: miter; stroke-linecap: square"/>
   </g>
   <g id="patch_13">
    <path d="M 255.58 306.52 
L 450 306.52 
" style="fill: none; stroke: #000000; stroke-width: 0.8; stroke-linejoin: miter; stroke-linecap: square"/>
   </g>
   <g id="legend_4">
    <g id="line2d_48">
     <path d="M 264.58 191.298437 
L 274.58 191.298437 
L 284.58 191.298437 
" style="fill: none; stroke: #cfb5d6; stroke-width: 1.5; stroke-linecap: square"/>
     <g>
      <use xlink:href="#m492898b5d7" x="274.58" y="191.298437" style="fill: #cfb5d6; stroke: #cfb5d6"/>
     </g>
    </g>
    <g id="text_48">
     <!-- $\sigma_t$ -->
     <g transform="translate(292.58 194.798437) scale(0.1 -0.1)">
      <defs>
       <path id="DejaVuSans-Oblique-3c3" d="M 2219 3044 
Q 1744 3044 1422 2700 
Q 1081 2341 969 1747 
Q 844 1119 1044 756 
Q 1241 397 1706 397 
Q 2166 397 2503 759 
Q 2844 1122 2966 1747 
Q 3075 2319 2881 2700 
Q 2700 3044 2219 3044 
z
M 2309 3503 
L 4219 3500 
L 4106 2925 
L 3463 2925 
Q 3706 2438 3575 1747 
Q 3406 888 2884 400 
Q 2359 -91 1609 -91 
Q 856 -91 525 400 
Q 194 888 363 1747 
Q 528 2609 1050 3097 
Q 1484 3503 2309 3503 
z
" transform="scale(0.015625)"/>
      </defs>
      <use xlink:href="#DejaVuSans-Oblique-3c3" transform="translate(0 0.265625)"/>
      <use xlink:href="#DejaVuSans-Oblique-74" transform="translate(63.378906 -16.140625) scale(0.7)"/>
     </g>
    </g>
   </g>
  </g>
 </g>
 <defs>
  <clipPath id="p31c9602323">
   <rect x="30.58" y="10.8" width="194.42" height="128.32"/>
  </clipPath>
  <clipPath id="p443138e2f8">
   <rect x="255.58" y="10.8" width="194.42" height="128.32"/>
  </clipPath>
  <clipPath id="p808b1d9764">
   <rect x="30.58" y="178.2" width="194.42" height="128.32"/>
  </clipPath>
  <clipPath id="p70ea85adac">
   <rect x="255.58" y="178.2" width="194.42" height="128.32"/>
  </clipPath>
 </defs>
</svg>
